<svg xmlns="http://www.w3.org/2000/svg" width="1180" height="1026" viewBox="0 0 1180 1026" font-family="-apple-system,Segoe UI,Helvetica,Arial,sans-serif">
<rect width="1180" height="1026" fill="#0e1116" rx="14"/>
<text x="34" y="46" font-family="ui-monospace,SFMono-Regular,Menlo,monospace" font-size="13" letter-spacing="3" fill="#3ddc97">NITRO_HTTP BENCHMARK</text>
<text x="34" y="80" font-size="27" font-weight="700" fill="#ffffff">iOS — nitro_http vs the field</text>
<text x="1146" y="46" font-family="ui-monospace,SFMono-Regular,Menlo,monospace" font-size="12.5" text-anchor="end" fill="#8b949e">iPhone 12 · A14 Bionic · 4 GB · iOS 26.6</text>
<rect x="994" y="66" width="11" height="11" rx="2.5" fill="#3ddc97"/>
<text x="1010" y="76" font-size="12.5" fill="#8b949e">nitro_http</text>
<rect x="1080" y="66" width="11" height="11" rx="2.5" fill="#3d4756"/>
<text x="1096" y="76" font-size="12.5" fill="#8b949e">others</text>
<rect x="34" y="110" width="1112" height="154" fill="#151a21" rx="10"/>
<text x="54" y="136" font-size="15" font-weight="600" fill="#ffffff">small GET</text>
<text x="139" y="136" font-family="ui-monospace,SFMono-Regular,Menlo,monospace" font-size="11.5" fill="#6e7681">1 KiB</text>
<text x="1126" y="136" font-family="ui-monospace,SFMono-Regular,Menlo,monospace" font-size="11.5" text-anchor="end" fill="#6e7681">dart:io 7/9</text>
<line x1="54" y1="230.5" x2="1126" y2="230.5" stroke="#232a33" stroke-width="1"/>
<path d="M228.0 230 v-48.3 a5 5 0 0 1 5 -5 h98 a5 5 0 0 1 5 5 v48.3 z" fill="#3d4756"/>
<text x="282.0" y="167.7" font-size="13" text-anchor="middle" font-weight="500" fill="#8b949e">0.13</text>
<text x="282.0" y="249" font-size="12" text-anchor="middle" font-weight="400" fill="#8b949e">dart:io</text>
<text x="282.0" y="264" font-family="ui-monospace,SFMono-Regular,Menlo,monospace" font-size="10" text-anchor="middle" fill="#6e7681">fastest</text>
<path d="M382.0 230 v-52.4 a5 5 0 0 1 5 -5 h98 a5 5 0 0 1 5 5 v52.4 z" fill="#3ddc97"/>
<text x="436.0" y="163.6" font-size="13" text-anchor="middle" font-weight="700" fill="#3ddc97">0.14</text>
<text x="436.0" y="249" font-size="12" text-anchor="middle" font-weight="700" fill="#ffffff">nitro_http</text>
<path d="M536.0 230 v-52.4 a5 5 0 0 1 5 -5 h98 a5 5 0 0 1 5 5 v52.4 z" fill="#3d4756"/>
<text x="590.0" y="163.6" font-size="13" text-anchor="middle" font-weight="500" fill="#8b949e">0.14</text>
<text x="590.0" y="249" font-size="12" text-anchor="middle" font-weight="400" fill="#8b949e">package:http</text>
<path d="M690.0 230 v-60.599999999999994 a5 5 0 0 1 5 -5 h98 a5 5 0 0 1 5 5 v60.599999999999994 z" fill="#3d4756"/>
<text x="744.0" y="155.4" font-size="13" text-anchor="middle" font-weight="500" fill="#8b949e">0.16</text>
<text x="744.0" y="249" font-size="12" text-anchor="middle" font-weight="400" fill="#8b949e">rhttp</text>
<path d="M844.0 230 v-77.0 a5 5 0 0 1 5 -5 h98 a5 5 0 0 1 5 5 v77.0 z" fill="#3d4756"/>
<text x="898.0" y="139.0" font-size="13" text-anchor="middle" font-weight="500" fill="#8b949e">0.2</text>
<text x="898.0" y="249" font-size="12" text-anchor="middle" font-weight="400" fill="#8b949e">dio</text>
<text x="54" y="249" font-family="ui-monospace,SFMono-Regular,Menlo,monospace" font-size="10.5" fill="#6e7681">ms · lower is better</text>
<rect x="34" y="282" width="1112" height="154" fill="#151a21" rx="10"/>
<text x="54" y="308" font-size="15" font-weight="600" fill="#ffffff">64 GETs at once</text>
<text x="193" y="308" font-family="ui-monospace,SFMono-Regular,Menlo,monospace" font-size="11.5" fill="#6e7681">concurrency</text>
<text x="1126" y="308" font-family="ui-monospace,SFMono-Regular,Menlo,monospace" font-size="11.5" text-anchor="end" fill="#6e7681">nitro_http wins 9/9</text>
<line x1="54" y1="402.5" x2="1126" y2="402.5" stroke="#232a33" stroke-width="1"/>
<path d="M228.0 402 v-46.18934911242603 a5 5 0 0 1 5 -5 h98 a5 5 0 0 1 5 5 v46.18934911242603 z" fill="#3ddc97"/>
<text x="282.0" y="341.81065088757396" font-size="13" text-anchor="middle" font-weight="700" fill="#3ddc97">4.22</text>
<text x="282.0" y="421" font-size="12" text-anchor="middle" font-weight="700" fill="#ffffff">nitro_http</text>
<text x="282.0" y="436" font-family="ui-monospace,SFMono-Regular,Menlo,monospace" font-size="10" text-anchor="middle" fill="#6e7681">fastest</text>
<path d="M382.0 402 v-47.88757396449705 a5 5 0 0 1 5 -5 h98 a5 5 0 0 1 5 5 v47.88757396449705 z" fill="#3d4756"/>
<text x="436.0" y="340.11242603550295" font-size="13" text-anchor="middle" font-weight="500" fill="#8b949e">4.36</text>
<text x="436.0" y="421" font-size="12" text-anchor="middle" font-weight="400" fill="#8b949e">rhttp</text>
<path d="M536.0 402 v-56.86390532544379 a5 5 0 0 1 5 -5 h98 a5 5 0 0 1 5 5 v56.86390532544379 z" fill="#3d4756"/>
<text x="590.0" y="331.1360946745562" font-size="13" text-anchor="middle" font-weight="500" fill="#8b949e">5.1</text>
<text x="590.0" y="421" font-size="12" text-anchor="middle" font-weight="400" fill="#8b949e">package:http</text>
<path d="M690.0 402 v-57.83431952662722 a5 5 0 0 1 5 -5 h98 a5 5 0 0 1 5 5 v57.83431952662722 z" fill="#3d4756"/>
<text x="744.0" y="330.1656804733728" font-size="13" text-anchor="middle" font-weight="500" fill="#8b949e">5.18</text>
<text x="744.0" y="421" font-size="12" text-anchor="middle" font-weight="400" fill="#8b949e">dart:io</text>
<path d="M844.0 402 v-77.0 a5 5 0 0 1 5 -5 h98 a5 5 0 0 1 5 5 v77.0 z" fill="#3d4756"/>
<text x="898.0" y="311.0" font-size="13" text-anchor="middle" font-weight="500" fill="#8b949e">6.76</text>
<text x="898.0" y="421" font-size="12" text-anchor="middle" font-weight="400" fill="#8b949e">dio</text>
<text x="54" y="421" font-family="ui-monospace,SFMono-Regular,Menlo,monospace" font-size="10.5" fill="#6e7681">ms · lower is better</text>
<rect x="34" y="454" width="1112" height="154" fill="#151a21" rx="10"/>
<text x="54" y="480" font-size="15" font-weight="600" fill="#ffffff">32 MiB download</text>
<text x="193" y="480" font-family="ui-monospace,SFMono-Regular,Menlo,monospace" font-size="11.5" fill="#6e7681">streamed</text>
<text x="1126" y="480" font-family="ui-monospace,SFMono-Regular,Menlo,monospace" font-size="11.5" text-anchor="end" fill="#6e7681">nitro_http wins 7/9</text>
<line x1="54" y1="574.5" x2="1126" y2="574.5" stroke="#232a33" stroke-width="1"/>
<path d="M228.0 574 v-65.66909090909091 a5 5 0 0 1 5 -5 h98 a5 5 0 0 1 5 5 v65.66909090909091 z" fill="#3ddc97"/>
<text x="282.0" y="494.3309090909091" font-size="13" text-anchor="middle" font-weight="700" fill="#3ddc97">135</text>
<text x="282.0" y="593" font-size="12" text-anchor="middle" font-weight="700" fill="#ffffff">nitro_http</text>
<text x="282.0" y="608" font-family="ui-monospace,SFMono-Regular,Menlo,monospace" font-size="10" text-anchor="middle" fill="#6e7681">fastest</text>
<path d="M382.0 574 v-65.79464114832537 a5 5 0 0 1 5 -5 h98 a5 5 0 0 1 5 5 v65.79464114832537 z" fill="#3d4756"/>
<text x="436.0" y="494.20535885167465" font-size="13" text-anchor="middle" font-weight="500" fill="#8b949e">135</text>
<text x="436.0" y="593" font-size="12" text-anchor="middle" font-weight="400" fill="#8b949e">rhttp</text>
<path d="M536.0 574 v-75.83866028708134 a5 5 0 0 1 5 -5 h98 a5 5 0 0 1 5 5 v75.83866028708134 z" fill="#3d4756"/>
<text x="590.0" y="484.1613397129187" font-size="13" text-anchor="middle" font-weight="500" fill="#8b949e">155</text>
<text x="590.0" y="593" font-size="12" text-anchor="middle" font-weight="400" fill="#8b949e">dio</text>
<path d="M690.0 574 v-76.5082615629984 a5 5 0 0 1 5 -5 h98 a5 5 0 0 1 5 5 v76.5082615629984 z" fill="#3d4756"/>
<text x="744.0" y="483.4917384370016" font-size="13" text-anchor="middle" font-weight="500" fill="#8b949e">156</text>
<text x="744.0" y="593" font-size="12" text-anchor="middle" font-weight="400" fill="#8b949e">package:http</text>
<path d="M844.0 574 v-77.0 a5 5 0 0 1 5 -5 h98 a5 5 0 0 1 5 5 v77.0 z" fill="#3d4756"/>
<text x="898.0" y="483.0" font-size="13" text-anchor="middle" font-weight="500" fill="#8b949e">157</text>
<text x="898.0" y="593" font-size="12" text-anchor="middle" font-weight="400" fill="#8b949e">dart:io</text>
<text x="54" y="593" font-family="ui-monospace,SFMono-Regular,Menlo,monospace" font-size="10.5" fill="#6e7681">ms · lower is better</text>
<rect x="34" y="626" width="1112" height="154" fill="#151a21" rx="10"/>
<text x="54" y="652" font-size="15" font-weight="600" fill="#ffffff">8 MiB upload</text>
<text x="166" y="652" font-family="ui-monospace,SFMono-Regular,Menlo,monospace" font-size="11.5" fill="#6e7681">streamed</text>
<text x="1126" y="652" font-family="ui-monospace,SFMono-Regular,Menlo,monospace" font-size="11.5" text-anchor="end" fill="#6e7681">package:http 8/9</text>
<line x1="54" y1="746.5" x2="1126" y2="746.5" stroke="#232a33" stroke-width="1"/>
<path d="M228.0 746 v-70.64217356042174 a5 5 0 0 1 5 -5 h98 a5 5 0 0 1 5 5 v70.64217356042174 z" fill="#3d4756"/>
<text x="282.0" y="661.3578264395783" font-size="13" text-anchor="middle" font-weight="500" fill="#8b949e">114</text>
<text x="282.0" y="765" font-size="12" text-anchor="middle" font-weight="400" fill="#8b949e">package:http</text>
<text x="282.0" y="780" font-family="ui-monospace,SFMono-Regular,Menlo,monospace" font-size="10" text-anchor="middle" fill="#6e7681">fastest</text>
<path d="M382.0 746 v-71.20081103000811 a5 5 0 0 1 5 -5 h98 a5 5 0 0 1 5 5 v71.20081103000811 z" fill="#3d4756"/>
<text x="436.0" y="660.7991889699919" font-size="13" text-anchor="middle" font-weight="500" fill="#8b949e">115</text>
<text x="436.0" y="765" font-size="12" text-anchor="middle" font-weight="400" fill="#8b949e">dart:io</text>
<path d="M536.0 746 v-71.29391727493916 a5 5 0 0 1 5 -5 h98 a5 5 0 0 1 5 5 v71.29391727493916 z" fill="#3d4756"/>
<text x="590.0" y="660.7060827250608" font-size="13" text-anchor="middle" font-weight="500" fill="#8b949e">115</text>
<text x="590.0" y="765" font-size="12" text-anchor="middle" font-weight="400" fill="#8b949e">dio</text>
<path d="M690.0 746 v-72.69716139497162 a5 5 0 0 1 5 -5 h98 a5 5 0 0 1 5 5 v72.69716139497162 z" fill="#3ddc97"/>
<text x="744.0" y="659.3028386050283" font-size="13" text-anchor="middle" font-weight="700" fill="#3ddc97">117</text>
<text x="744.0" y="765" font-size="12" text-anchor="middle" font-weight="700" fill="#ffffff">nitro_http</text>
<path d="M844.0 746 v-77.0 a5 5 0 0 1 5 -5 h98 a5 5 0 0 1 5 5 v77.0 z" fill="#3d4756"/>
<text x="898.0" y="655.0" font-size="13" text-anchor="middle" font-weight="500" fill="#8b949e">123</text>
<text x="898.0" y="765" font-size="12" text-anchor="middle" font-weight="400" fill="#8b949e">rhttp</text>
<text x="54" y="765" font-family="ui-monospace,SFMono-Regular,Menlo,monospace" font-size="10.5" fill="#6e7681">ms · lower is better</text>
<rect x="34" y="798" width="1112" height="154" fill="#151a21" rx="10"/>
<text x="54" y="824" font-size="15" font-weight="600" fill="#ffffff">mixed workload</text>
<text x="184" y="824" font-family="ui-monospace,SFMono-Regular,Menlo,monospace" font-size="11.5" fill="#6e7681">closest to an app</text>
<text x="1126" y="824" font-family="ui-monospace,SFMono-Regular,Menlo,monospace" font-size="11.5" text-anchor="end" fill="#6e7681">nitro_http wins 9/9</text>
<line x1="54" y1="918.5" x2="1126" y2="918.5" stroke="#232a33" stroke-width="1"/>
<path d="M228.0 918 v-37.264317180616736 a5 5 0 0 1 5 -5 h98 a5 5 0 0 1 5 5 v37.264317180616736 z" fill="#3ddc97"/>
<text x="282.0" y="866.7356828193832" font-size="13" text-anchor="middle" font-weight="700" fill="#3ddc97">1.17</text>
<text x="282.0" y="937" font-size="12" text-anchor="middle" font-weight="700" fill="#ffffff">nitro_http</text>
<text x="282.0" y="952" font-family="ui-monospace,SFMono-Regular,Menlo,monospace" font-size="10" text-anchor="middle" fill="#6e7681">fastest</text>
<path d="M382.0 918 v-49.546255506607935 a5 5 0 0 1 5 -5 h98 a5 5 0 0 1 5 5 v49.546255506607935 z" fill="#3d4756"/>
<text x="436.0" y="854.453744493392" font-size="13" text-anchor="middle" font-weight="500" fill="#8b949e">1.51</text>
<text x="436.0" y="937" font-size="12" text-anchor="middle" font-weight="400" fill="#8b949e">rhttp</text>
<path d="M536.0 918 v-53.519823788546255 a5 5 0 0 1 5 -5 h98 a5 5 0 0 1 5 5 v53.519823788546255 z" fill="#3d4756"/>
<text x="590.0" y="850.4801762114538" font-size="13" text-anchor="middle" font-weight="500" fill="#8b949e">1.62</text>
<text x="590.0" y="937" font-size="12" text-anchor="middle" font-weight="400" fill="#8b949e">dart:io</text>
<path d="M690.0 918 v-54.242290748898675 a5 5 0 0 1 5 -5 h98 a5 5 0 0 1 5 5 v54.242290748898675 z" fill="#3d4756"/>
<text x="744.0" y="849.7577092511013" font-size="13" text-anchor="middle" font-weight="500" fill="#8b949e">1.64</text>
<text x="744.0" y="937" font-size="12" text-anchor="middle" font-weight="400" fill="#8b949e">package:http</text>
<path d="M844.0 918 v-77.0 a5 5 0 0 1 5 -5 h98 a5 5 0 0 1 5 5 v77.0 z" fill="#3d4756"/>
<text x="898.0" y="827.0" font-size="13" text-anchor="middle" font-weight="500" fill="#8b949e">2.27</text>
<text x="898.0" y="937" font-size="12" text-anchor="middle" font-weight="400" fill="#8b949e">dio</text>
<text x="54" y="937" font-family="ui-monospace,SFMono-Regular,Menlo,monospace" font-size="10.5" fill="#6e7681">ms · lower is better</text>
<text x="34" y="980" font-family="ui-monospace,SFMono-Regular,Menlo,monospace" font-size="11.5" fill="#6e7681">median p50 of 10 release runs, first discarded as warm-up · in-process loopback, no TLS · physical device, release build</text>
<text x="34" y="1002" font-size="12.5" fill="#8b949e">wins concurrency and mixed traffic in every run; 433 req/s mixed against 342 for the next best. Loses the 8 MiB upload by 2.7%.</text>
</svg>